<?xml version="1.0" encoding="UTF-8"?>
<svg id="Layer_2" data-name="Layer 2" xmlns="http://www.w3.org/2000/svg" xmlns:xlink="http://www.w3.org/1999/xlink" viewBox="0 0 68.64 94.56">
  <defs>
    <style>
      .cls-1 {
        fill: #df4431;
      }

      .cls-2 {
        fill: none;
      }

      .cls-3 {
        clip-path: url(#clippath);
      }

      .cls-4 {
        fill: #020203;
      }
    </style>
    <clipPath id="clippath">
      <rect class="cls-2" width="68.64" height="94.56"/>
    </clipPath>
  </defs>
  <g id="Layer_2-2" data-name="Layer 2">
    <g id="Layer_1-2" data-name="Layer 1-2">
      <g class="cls-3">
        <g>
          <path class="cls-4" d="M10.89,59.79l13.92,3.97c6.33,2.16,12.48,4.77,18.58,7.49,1.14-.1,6.85-6.17,7.05-7.39.06-.37-.14-.27-.26-.37-1.17-1.03-3.21-1.85-4.42-2.9-.22-.19-.44-.21-.35-.59,3.07-.95,6.31-1.28,9.53-1.06,1.35.1,2.58.07,2.8,1.6.45,3.18-.08,7.2-.97,10.28-.46,1.58-1.08,3.24-1.94,4.65l1.18-1.21c2.19-3.36,3.42-7.1,3.63-11.12.23-.22,1.73.64,1.85.98.18,2.67.32,5.33.24,8.01l.69-1.51c.75-2.5,1.12-5.08.99-7.69.63.54,5.01,2.24,5.21,2.53.2.28-1.34,2.96-1.62,3.47-6.36,11.64-17.75,21.05-30.38,25.26-.47.15-.82.35-1.35.33-1.49-.05-8.62-3.41-10.09-4.36-.2-.13-.56-.24-.48-.56s5.31-2.26,6.14-2.64c9.36-4.37,21.33-11.78,22.73-22.97l-2.55,3.83c-5.99,8.21-17.52,14.06-27.16,16.76-.96.27-4.36,1.26-5.11,1.15-.63-.1-3.84-2.83-4.52-3.44-3.97-3.57-7.8-8.02-10.25-12.76l13.81-4.49c-5.19-.57-10.4.09-15.59.42-.6-.11-1.97-3.21-1.99-3.87-.02-.49.05-.23.32-.32.66-.21,1.63-.29,2.19-.74.8-.65,2.47-4.49,3.28-4.65,3.48.93,7.26,1.86,10.5,3.45.28.14.58-.14.46.47h-6.07Z"/>
          <path class="cls-4" d="M50.64,16.72c-2.67.52-4.7,3.13-4.6,5.86-3-.53-5.51-1.68-8.69-1.47-7.15.47-12.41,5.45-12.87,12.65-.01.23-.14.99.22.95,1.66-8.7,11.93-13.63,20.08-11.39.5.14,2.86.9,2.72,1.46-.08.32-5.02,2.57-5.79,3-3.23,1.8-6.21,3.84-8.97,6.3l-1.66,1.68c-.34.29.2.22.37.17,1.41-.5,3.51-2.02,4.96-2.78,4.6-2.41,10.49-5.51,15.28-7.31.41-.15.8-.35,1.25-.32.57,2.94.59,6.11,1.11,9.04.51,2.93,1.83,5.56,2.46,8.42-.02.31-2.6-.55-2.93-.52-.32.36.72,3.67-1.05,3.14-.18.67.54.3.75.61.5.75-.28,1.98-.31,2.64-.1,2.03,2.26,5.75-1.48,5.53l-1.15-16.52-6.37-2.85c-.74-.26-1.36.35-2.1.34-.08.35.11.42.32.62,1.01.98,5.5,3.8,5.8,4.45l2.25,14.79c-.22.23-3.73-2.51-4.16-2.84-1.65-1.27-3.19-2.67-4.84-3.94l-2.5-7.64c-.09,3.14.15,6.27.31,9.41l7.43,4.29c-.63.56-2.01.26-2.36.99-.71,2.33-.59,5.28-1.22,7.56-.07.24-.07.5-.4.54l-7.95-12.96,4.71,14.22-15.71-10.66,3.99-9.19c-2.32,2.33-4.78,4.99-8.06,5.85.87-2.12,2.02-4.21,2.1-6.57.11-3.31-1.78-6.38-2.07-9.65-.49-5.38,1.08-11.43,6.04-14.19-.74,1.16-1.65,2.31-1.98,3.66,1.56-1.3,2.62-3.27,4.5-4.18-.95-1.5-2.62-2.59-4.39-2.82,6.67-6.56,18.27-7.44,25.71-1.66.25.2,1.49,1.09,1.27,1.34h0l-.02-.05ZM45.16,18.15c.09-.05,1.24-1.47,1.27-1.57.08-.31,0-.38-.18-.59-.3-.31-2.63-1.24-3.18-1.42-4.01-1.28-8.75-1.2-12.65.44-.39.16-2.34,1.09-2.34,1.4.36.46,1.41,1.97,1.96,1.98.29,0,2.46-.91,3.12-1.07,3.46-.86,6.12-.73,9.54.13.58.15,2.09.92,2.47.69h-.01ZM23.34,24.46v.21c.14-.07.14-.14,0-.21h0ZM51.46,34.93c-.16-.19-4.17-.95-4.79-1.06,1.06,1.51,2.78,2.36,4.48,2.93.28-.03.47-1.68.31-1.87h0Z"/>
          <path class="cls-1" d="M62.78,10.24c-2.79-.16-5.61.6-8.09,1.85-.83.42-3.51,2.44-3.98,2.52-.64.1-2.46-1.21-3.2-1.53-11.9-5.16-26.59-.56-30.44,12.44-1.31,4.42-.95,8.99-2.26,13.42-1.7,5.75-6.31,11.63-12.49,12.7,3.27-2.86,5.53-6.3,5.87-10.76.58-7.75-2.17-12.72.67-21.07C16.11-1.56,46.06-5.78,61.73,8.88c.18.16,1.28,1.16,1.04,1.36h0Z"/>
          <path class="cls-4" d="M42.27,68.78l-31.58-13.68c1.07-.84,2.98-3.76,4.39-3.37,1.16.32,4.25,2.36,5.5,3.09,3.14,1.83,6.25,3.79,9.33,5.72,4.19,2.62,8.44,5.24,12.36,8.24h0Z"/>
        </g>
      </g>
    </g>
  </g>
</svg>