<svg id="Capa_1" enable-background="new 0 0 512 512" height="512" viewBox="0 0 512 512" width="512" xmlns="http://www.w3.org/2000/svg"><g><g id="Page-1_39_"><g id="_x30_40---GPU"><path id="Shape_219_" d="m486.4 132.267h-401.067v-42.667c0-14.138-11.462-25.6-25.6-25.6h-34.133c-14.138 0-25.6 11.462-25.6 25.6s11.462 25.6 25.6 25.6h8.533v34.133h-17.066c-9.426 0-17.067 7.641-17.067 17.067v51.2c0 9.426 7.641 17.067 17.067 17.067h17.067v17.067h-17.067c-9.426-.001-17.067 7.64-17.067 17.066v93.867c0 9.426 7.641 17.067 17.067 17.067h17.067v42.666c0 14.138 11.462 25.6 25.6 25.6s25.6-11.462 25.6-25.6v-17.067h17.066v17.067c0 9.426 7.641 17.067 17.067 17.067h110.933c9.426 0 17.067-7.641 17.067-17.067v-17.067h17.067v17.067c0 9.426 7.641 17.067 17.067 17.067h196.267c9.426 0 17.067-7.641 17.067-17.067v-18.637c10.192-3.603 17.022-13.22 17.067-24.03v-221.866c-.002-14.139-11.463-25.6-25.602-25.6zm-469.333 85.333v-51.2h17.067v51.2zm0 145.067v-93.867h17.067v93.867zm51.2 59.733c0 4.713-3.821 8.533-8.533 8.533s-8.533-3.82-8.533-8.533v-315.733c0-4.713-3.821-8.533-8.533-8.533h-17.068c-4.713 0-8.533-3.821-8.533-8.533s3.821-8.533 8.533-8.533h34.133c4.713 0 8.533 3.821 8.533 8.533v332.799zm51.2-17.067h25.6v17.067h-25.6zm42.666 17.067v-17.067h25.6v17.067zm68.267 0h-25.6v-17.067h25.6zm51.2-17.067h25.6v17.067h-25.6zm42.667 0h25.6v17.067h-25.6zm42.666 17.067v-17.067h25.6v17.067zm42.667 0v-17.067h25.6v17.067zm68.267 0h-25.6v-17.067h25.6zm17.066-42.667c0 4.713-3.82 8.533-8.533 8.533h-401.067v-238.933h401.067c4.713 0 8.533 3.821 8.533 8.533z"/><path id="Shape_218_" d="m204.8 226.133c9.426 0 17.067 7.641 17.067 17.067 0 4.713 3.82 8.533 8.533 8.533s8.533-3.821 8.533-8.533c0-18.851-15.282-34.133-34.133-34.133s-34.133 15.282-34.133 34.133v51.2c0 18.851 15.282 34.133 34.133 34.133s34.133-15.282 34.133-34.133v-17.067c0-4.713-3.821-8.533-8.533-8.533h-17.067c-4.713 0-8.533 3.82-8.533 8.533s3.82 8.533 8.533 8.533h8.533v8.533c0 9.426-7.641 17.067-17.067 17.067s-17.067-7.641-17.067-17.067v-51.2c.001-9.425 7.642-17.066 17.068-17.066z"/><path id="Shape_217_" d="m290.133 209.067h-25.6c-4.713 0-8.533 3.821-8.533 8.533v102.4c0 4.713 3.821 8.533 8.533 8.533s8.533-3.821 8.533-8.533v-42.667h17.067c18.851 0 34.133-15.282 34.133-34.133s-15.281-34.133-34.133-34.133zm0 51.2h-17.067v-34.133h17.067c9.426 0 17.067 7.641 17.067 17.067s-7.641 17.066-17.067 17.066z"/><path id="Shape_216_" d="m401.067 209.067c-4.713 0-8.533 3.821-8.533 8.533v76.8c0 9.426-7.641 17.067-17.067 17.067s-17.067-7.641-17.067-17.067v-76.8c0-4.713-3.821-8.533-8.533-8.533-4.713 0-8.533 3.821-8.533 8.533v76.8c0 18.851 15.282 34.133 34.133 34.133s34.133-15.282 34.133-34.133v-76.8c0-4.713-3.82-8.533-8.533-8.533z"/><path id="Shape_215_" d="m136.533 166.4h-25.6c-4.713 0-8.533 3.821-8.533 8.533v25.6c0 4.713 3.821 8.533 8.533 8.533 4.713 0 8.533-3.821 8.533-8.533v-17.067h17.067c4.713 0 8.533-3.821 8.533-8.533.001-4.712-3.82-8.533-8.533-8.533z"/></g></g></g></svg>