<?xml version="1.0" encoding="UTF-8"?>
<svg xmlns="http://www.w3.org/2000/svg" viewBox="0 0 512 512" width="512" height="512"><g id="Layer_24" data-name="Layer 24"><path d="M440,488H80V472H208a8,8,0,0,0,8-8V368a8,8,0,0,0-8-8H128a8,8,0,0,0,0,16h72v16H24V376H96a8,8,0,0,0,0-16H80V256H96a8,8,0,0,0,8-8V168a8,8,0,0,0-8-8H80V144H96a8,8,0,0,0,8-8V56a8,8,0,0,0-8-8H80V24H96A8,8,0,0,0,96,8H72a8,8,0,0,0-8,8V48H48a8,8,0,0,0-8,8v8H16a8,8,0,0,0-8,8v48a8,8,0,0,0,8,8H40v8a8,8,0,0,0,8,8H64v16H48a8,8,0,0,0-8,8v8H16a8,8,0,0,0-8,8v48a8,8,0,0,0,8,8H40v8a8,8,0,0,0,8,8H64V360H16a8,8,0,0,0-8,8v96a8,8,0,0,0,8,8H64v24a8,8,0,0,0,8,8H440a8,8,0,0,0,0-16ZM24,112V80H40v32ZM56,64H88v64H56ZM24,224V192H40v32Zm32-48H88v64H56ZM200,408v16H24V408ZM24,440H200v16H24Z"/><path d="M496,8H127.992a8,8,0,0,0,0,16H488V488H472a8,8,0,0,0,0,16h24a8,8,0,0,0,8-8V16A8,8,0,0,0,496,8Z"/><path d="M144,192a8,8,0,0,0,0,16h16v24a8,8,0,0,0,8,8h24v16a8,8,0,0,0,16,0V240h16v16a8,8,0,0,0,16,0V240h16v16a8,8,0,0,0,16,0V240h16v16a8,8,0,0,0,16,0V240h24a8,8,0,0,0,8-8V208h16a8,8,0,0,0,0-16H336V176h16a8,8,0,0,0,0-16H336V144h16a8,8,0,0,0,0-16H336V112h16a8,8,0,0,0,0-16H336V72a8,8,0,0,0-8-8H304V48a8,8,0,0,0-16,0V64H272V48a8,8,0,0,0-16,0V64H240V48a8,8,0,0,0-16,0V64H208V48a8,8,0,0,0-16,0V64H168a8,8,0,0,0-8,8V96H144a8,8,0,0,0,0,16h16v16H144a8,8,0,0,0,0,16h16v16H144a8,8,0,0,0,0,16h16v16ZM176,80H320V224H176Z"/><path d="M216,192h64a8,8,0,0,0,8-8V120a8,8,0,0,0-8-8H264a8,8,0,0,0,0,16h8v48H224V128h8a8,8,0,0,0,0-16H216a8,8,0,0,0-8,8v64A8,8,0,0,0,216,192Z"/><path d="M360,264a8,8,0,0,0,16,0V248h16V456H376V296a8,8,0,0,0-16,0V464a8,8,0,0,0,8,8h32a8,8,0,0,0,8-8V240a8,8,0,0,0-8-8H368a8,8,0,0,0-8,8Z"/><path d="M424,464a8,8,0,0,0,8,8h32a8,8,0,0,0,8-8V240a8,8,0,0,0-8-8H432a8,8,0,0,0-8,8Zm16-216h16V456H440Z"/><path d="M368,88h32a8,8,0,0,0,8-8V48a8,8,0,0,0-8-8H368a8,8,0,0,0-8,8V80A8,8,0,0,0,368,88Zm8-32h16V72H376Z"/><path d="M464,88a8,8,0,0,0,8-8V48a8,8,0,0,0-8-8H432a8,8,0,0,0-8,8V80a8,8,0,0,0,8,8ZM440,56h16V72H440Z"/><path d="M448,152a24,24,0,1,0-24-24A24.027,24.027,0,0,0,448,152Zm0-32a8,8,0,1,1-8,8A8.005,8.005,0,0,1,448,120Z"/><path d="M448,216a24,24,0,0,0,0-48,8,8,0,0,0,0,16,8,8,0,1,1-8,8,8,8,0,0,0-16,0A24.027,24.027,0,0,0,448,216Z"/><path d="M120,320H104a8,8,0,0,0,0,16h16a8,8,0,0,0,0-16Z"/><path d="M120,288H104a8,8,0,0,0,0,16h16a8,8,0,0,0,0-16Z"/><path d="M168,288H152a8,8,0,0,0,0,16h16a8,8,0,0,0,0-16Z"/><path d="M168,320H152a8,8,0,0,0,0,16h16a8,8,0,0,0,0-16Z"/><path d="M272,424H240a8,8,0,0,0-8,8v32a8,8,0,0,0,8,8h32a8,8,0,0,0,8-8V432A8,8,0,0,0,272,424Zm-8,32H248V440h16Z"/><path d="M280,368a8,8,0,0,0-8-8H240a8,8,0,0,0-8,8v32a8,8,0,0,0,8,8h32a8,8,0,0,0,8-8Zm-16,24H248V376h16Z"/><path d="M336,424H304a8,8,0,0,0-8,8v32a8,8,0,0,0,8,8h32a8,8,0,0,0,8-8V432A8,8,0,0,0,336,424Zm-8,32H312V440h16Z"/><path d="M344,368a8,8,0,0,0-8-8H304a8,8,0,0,0-8,8v32a8,8,0,0,0,8,8h32a8,8,0,0,0,8-8Zm-16,24H312V376h16Z"/></g></svg>
