<svg id="Layer_1" viewBox="0 0 48 48" xmlns="http://www.w3.org/2000/svg" data-name="Layer 1"><path d="m33 13h-18c-1.103 0-2 .897-2 2v18c0 1.103.897 2 2 2h18c1.103 0 2-.897 2-2v-18c0-1.103-.897-2-2-2zm-18 20v-18h18v18s-18 0-18 0z"/><path d="m44 19c.552 0 1-.448 1-1s-.448-1-1-1h-3v-4h3c.552 0 1-.448 1-1s-.448-1-1-1h-3.101c-.399-1.956-1.943-3.5-3.899-3.899v-3.101c0-.552-.448-1-1-1s-1 .448-1 1v3h-4v-3c0-.552-.448-1-1-1s-1 .448-1 1v3h-4v-3c0-.552-.448-1-1-1s-1 .448-1 1v3h-4v-3c0-.552-.448-1-1-1s-1 .448-1 1v3h-4v-3c0-.552-.448-1-1-1s-1 .448-1 1v3.101c-1.956.399-3.5 1.943-3.899 3.899h-3.101c-.552 0-1 .448-1 1s.448 1 1 1h3v4h-3c-.552 0-1 .448-1 1s.448 1 1 1h3v4h-3c-.552 0-1 .448-1 1s.448 1 1 1h3v4h-3c-.552 0-1 .448-1 1s.448 1 1 1h3v4h-3c-.552 0-1 .448-1 1s.448 1 1 1h3.101c.399 1.956 1.943 3.5 3.899 3.899v3.101c0 .552.448 1 1 1s1-.448 1-1v-3h4v3c0 .552.448 1 1 1s1-.448 1-1v-3h4v3c0 .552.448 1 1 1s1-.448 1-1v-3h4v3c0 .552.448 1 1 1s1-.448 1-1v-3h4v3c0 .552.448 1 1 1s1-.448 1-1v-3.101c1.956-.399 3.5-1.943 3.899-3.899h3.101c.552 0 1-.448 1-1s-.448-1-1-1h-3v-4h3c.552 0 1-.448 1-1s-.448-1-1-1h-3v-4h3c.552 0 1-.448 1-1s-.448-1-1-1h-3v-4zm-5 17c0 1.654-1.346 3-3 3h-24c-1.654 0-3-1.346-3-3v-24c0-1.654 1.346-3 3-3h24c1.654 0 3 1.346 3 3z"/></svg>