<?xml version="1.0" encoding="UTF-8"?>
<svg xmlns="http://www.w3.org/2000/svg" width="512" height="512" viewBox="0 0 128 128"><g><path d="M116.5,24.25H11.5A6.257,6.257,0,0,0,5.25,30.5v67a6.257,6.257,0,0,0,6.25,6.25h105a6.257,6.257,0,0,0,6.25-6.25v-67A6.257,6.257,0,0,0,116.5,24.25Zm2.75,73.25a2.752,2.752,0,0,1-2.75,2.75H11.5A2.752,2.752,0,0,1,8.75,97.5v-67a2.752,2.752,0,0,1,2.75-2.75h105a2.752,2.752,0,0,1,2.75,2.75Z"/><path d="M67.224,44.251l5.013-5.014a1.749,1.749,0,1,0-2.474-2.474l-5.014,5.013a29.675,29.675,0,0,0-39.5,0l-5.014-5.013a1.749,1.749,0,0,0-2.474,2.474l5.013,5.014a29.675,29.675,0,0,0,0,39.5l-5.013,5.014a1.749,1.749,0,1,0,2.474,2.474l5.014-5.013a29.675,29.675,0,0,0,39.5,0l5.014,5.013a1.749,1.749,0,0,0,2.474-2.474l-5.013-5.014a29.675,29.675,0,0,0,0-39.5ZM45,37.75a26.133,26.133,0,0,1,17.27,6.506l-4.607,4.607a19.687,19.687,0,0,0-25.326,0L27.73,44.256A26.133,26.133,0,0,1,45,37.75ZM38.75,64A6.25,6.25,0,1,1,45,70.25,6.257,6.257,0,0,1,38.75,64Zm11.789-8.014a9.706,9.706,0,0,0-11.079,0L34.824,51.35a16.182,16.182,0,0,1,20.352,0ZM36.986,58.461a9.7,9.7,0,0,0,0,11.078l-4.637,4.637a16.186,16.186,0,0,1,0-20.352ZM39.46,72.014a9.706,9.706,0,0,0,11.079,0l4.637,4.636a16.182,16.182,0,0,1-20.352,0Zm13.554-2.475a9.7,9.7,0,0,0,0-11.078l4.637-4.637a16.186,16.186,0,0,1,0,20.352ZM18.75,64a26.133,26.133,0,0,1,6.506-17.27l4.607,4.607a19.687,19.687,0,0,0,0,25.326L25.256,81.27A26.133,26.133,0,0,1,18.75,64ZM45,90.25a26.133,26.133,0,0,1-17.27-6.506l4.607-4.607a19.687,19.687,0,0,0,25.326,0l4.607,4.607A26.133,26.133,0,0,1,45,90.25ZM60.137,76.663a19.687,19.687,0,0,0,0-25.326l4.607-4.607a26.174,26.174,0,0,1,0,34.54Z"/><path d="M111,44.04H83a1.749,1.749,0,0,0-1.75,1.75V58.655a1.75,1.75,0,0,0,.671,1.378l4,3.134A1.748,1.748,0,0,0,87,63.54h20a1.75,1.75,0,0,0,1.079-.373l4-3.134a1.75,1.75,0,0,0,.671-1.378V45.79A1.749,1.749,0,0,0,111,44.04ZM109.25,57.8,106.4,60.04H87.6L84.75,57.8V47.54h24.5Z"/><path d="M107,70.46H87a1.75,1.75,0,0,0-1.75,1.75v10A1.749,1.749,0,0,0,87,83.96h20a1.749,1.749,0,0,0,1.75-1.75v-10A1.75,1.75,0,0,0,107,70.46Zm-18.25,3.5h6.5v6.5h-6.5Zm16.5,6.5h-6.5v-6.5h6.5Z"/><path d="M92,55.54h10a1.75,1.75,0,0,0,0-3.5H92a1.75,1.75,0,0,0,0,3.5Z"/></g></svg>
