<svg clip-rule="evenodd" fill-rule="evenodd" stroke-linejoin="round" stroke-miterlimit="2" viewBox="0 0 64 64" xmlns="http://www.w3.org/2000/svg" xmlns:serif="http://www.serif.com/"><g transform="translate(-80)"><g id="_02-hardisk" transform="translate(80)"><g transform="translate(-80)"><path d="m132 7c0-.552-.448-1-1-1h-38c-.552 0-1 .448-1 1v50c0 .552.448 1 1 1h38c.552 0 1-.448 1-1zm-17 49h15v-48h-36v33h4c.155 0 .308.036.447.106l3.067 1.533 1.176-1.626c-4.525-3.245-7.228-8.765-6.601-14.695.928-8.782 8.811-15.158 17.593-14.229 8.782.928 15.158 8.811 14.229 17.593-.928 8.782-8.811 15.158-17.593 14.229-.991-.104-1.952-.298-2.875-.571l-1.016 3.66h7.573c.552 0 1 .448 1 1zm-21-13v13h19v-7h-7.129l-.907 3.268c-.079.283-.279.517-.546.64s-.574.123-.841-.002l-6-2.8c-.27-.126-.47-.366-.545-.655s-.017-.596.158-.837l3.136-4.333-2.562-1.281zm5.52 5.806 7.027-9.71s-3.194 11.498-3.194 11.498zm8.459-7.394c.818.245 1.67.417 2.549.51 7.684.813 14.582-4.766 15.394-12.45.813-7.684-4.766-14.582-12.45-15.394-7.684-.813-14.582 4.766-15.394 12.45-.549 5.193 1.82 10.026 5.785 12.865l4.327-5.979c.284-.392.808-.525 1.244-.315s.659.702.53 1.169zm4.021-17.912c-2.484 0-4.5 2.016-4.5 4.5s2.016 4.5 4.5 4.5 4.5-2.016 4.5-4.5-2.016-4.5-4.5-4.5zm0 2c1.38 0 2.5 1.12 2.5 2.5s-1.12 2.5-2.5 2.5-2.5-1.12-2.5-2.5 1.12-2.5 2.5-2.5zm0-7.5c5.519 0 10 4.481 10 10 0 .552.448 1 1 1s1-.448 1-1c0-6.623-5.377-12-12-12-.552 0-1 .448-1 1s.448 1 1 1z"/></g></g></g></svg>